<svg xmlns="http://www.w3.org/2000/svg" xmlns:xlink="http://www.w3.org/1999/xlink" width="85.09mm" height="95.326mm" viewBox="4037.6 3039.2 335 375.3"><title></title><style type="text/css">
*[layerid="1"] {stroke:#000000;fill:#000000;}
*[layerid="2"] {stroke:#000000;fill:#000000;}
*[layerid="3"] {stroke:#000000;fill:#000000;}
*[layerid="4"] {stroke:#000000;fill:#000000;}
*[layerid="5"] {stroke:#000000;fill:#000000;}
*[layerid="6"] {stroke:#000000;fill:#000000;}
*[layerid="7"] {stroke:#000000;fill:#000000;}
*[layerid="8"] {stroke:#000000;fill:#000000;}
*[layerid="9"] {stroke:#000000;fill:#000000;}
*[layerid="10"] {stroke:#000000;fill:#000000;}
*[layerid="11"] {stroke:#000000;fill:#000000;}
*[layerid="12"] {stroke:#000000;fill:#000000;}
*[layerid="13"] {stroke:#000000;fill:#000000;}
*[layerid="14"] {stroke:#000000;fill:#000000;}
*[layerid="15"] {stroke:#000000;fill:#000000;}
*[layerid="19"] {stroke:#000000;fill:#000000;}
*[layerid="21"] {stroke:#000000;fill:#000000;}
*[layerid="22"] {stroke:#000000;fill:#000000;}
*[layerid="23"] {stroke:#000000;fill:#000000;}
*[layerid="24"] {stroke:#000000;fill:#000000;}
*[layerid="25"] {stroke:#000000;fill:#000000;}
*[layerid="26"] {stroke:#000000;fill:#000000;}
*[layerid="27"] {stroke:#000000;fill:#000000;}
*[layerid="28"] {stroke:#000000;fill:#000000;}
*[layerid="29"] {stroke:#000000;fill:#000000;}
*[layerid="30"] {stroke:#000000;fill:#000000;}
*[layerid="31"] {stroke:#000000;fill:#000000;}
*[layerid="32"] {stroke:#000000;fill:#000000;}
*[layerid="33"] {stroke:#000000;fill:#000000;}
*[layerid="34"] {stroke:#000000;fill:#000000;}
*[layerid="35"] {stroke:#000000;fill:#000000;}
*[layerid="36"] {stroke:#000000;fill:#000000;}
*[layerid="37"] {stroke:#000000;fill:#000000;}
*[layerid="38"] {stroke:#000000;fill:#000000;}
*[layerid="39"] {stroke:#000000;fill:#000000;}
*[layerid="40"] {stroke:#000000;fill:#000000;}
*[layerid="41"] {stroke:#000000;fill:#000000;}
*[layerid="42"] {stroke:#000000;fill:#000000;}
*[layerid="43"] {stroke:#000000;fill:#000000;}
*[layerid="44"] {stroke:#000000;fill:#000000;}
*[layerid="45"] {stroke:#000000;fill:#000000;}
*[layerid="46"] {stroke:#000000;fill:#000000;}
*[layerid="47"] {stroke:#000000;fill:#000000;}
*[layerid="48"] {stroke:#000000;fill:#000000;}
*[layerid="49"] {stroke:#000000;fill:#000000;}
*[layerid="50"] {stroke:#000000;fill:#000000;}
*[layerid="51"] {stroke:#000000;fill:#000000;}
*[layerid="52"] {stroke:#000000;fill:#000000;}
*[layerid="99"] {stroke:#000000;fill:#000000;}
*[layerid="100"] {stroke:#000000;fill:#000000;}
*[layerid="101"] {stroke:#000000;fill:#000000;}
*[layerid="Hole"] {stroke:#000000;fill:#000000;}
*[layerid="DRCError"] {stroke:#000000;fill:#000000;}
*[fill="none"] {fill: none;}
*[stroke="none"] {stroke: none;}
path, polyline, polygon, line {stroke-linecap:round;}
g[c_partid="part_pad"][layerid="1"] ellipse:not([c_etype="pad_outer"]) {fill:#000000;}
g[c_partid="part_pad"][layerid="1"] polygon:not([c_etype="pad_outer"]) {fill:#000000;}
g[c_partid="part_pad"][layerid="1"] polyline:not([c_etype="pad_outer"]) {stroke:#000000;}
g[c_partid="part_pad"][layerid="2"] ellipse:not([c_etype="pad_outer"]) {fill:#000000;}
g[c_partid="part_pad"][layerid="2"] polygon:not([c_etype="pad_outer"]) {fill:#000000;}
g[c_partid="part_pad"][layerid="2"] polyline:not([c_etype="pad_outer"]) {stroke:#000000;}
g[c_partid="part_pad"][layerid="11"] ellipse:not([c_etype="pad_outer"]) {fill:#000000;}
g[c_partid="part_pad"][layerid="11"] polygon:not([c_etype="pad_outer"]) {fill:#000000;}
g[c_partid="part_pad"][layerid="11"] polyline:not([c_etype="pad_outer"]) {stroke:#000000;}
g[c_partid="part_pad"][layerid="11"] circle {fill:#FFFFFF;}
g[c_partid="part_pad"][layerid="11"] > polyline:nth-of-type(2) {stroke:#FFFFFF;}
g[c_partid="part_pad"][layerid="11"][c_shape="ELLIPSE"]  polyline:nth-last-of-type(1) {stroke:#FFFFFF;}
g[c_partid="part_pad"][layerid="11"][c_shape="RECT"]  polyline:nth-last-of-type(1) {stroke:#FFFFFF;}
g[c_partid="part_pad"][layerid="11"][c_shape="POLYGON"]  polyline:nth-last-of-type(1) {stroke:#FFFFFF;}
g[c_partid="part_via"] > * + circle, #gCurParts g[c_partid="part_via"] > * + circle {fill:#FFFFFF;}
g[c_partid="part_pad"] > polygon[c_etype="pad_outer"], #gCurParts g[c_partid="part_pad"] > polygon[c_etype="pad_outer"] {stroke-linejoin: round;stroke-miterlimit: 100;}
g[c_partid="part_hole"] > circle {fill: #FFFFFF;}path, polyline, polygon {stroke-linejoin:round;}
rect, circle, ellipse, polyline, line, polygon, path {shape-rendering:crispEdges;}
</style>
<rect x="4037.6" y="3039.2" width="335" height="375.3" fill="#FFFFFF" stroke="none"/><polyline points="4060.63 3358.304 4228.346 3358.304" stroke-width="1.181"  stroke-linecap="round" fill="none" layerid="1" net="" id="gge21" locked="0" /><polyline points="4060.63 3360.666 4228.346 3360.666" stroke-width="1.181"  stroke-linecap="round" fill="none" layerid="1" net="" id="gge24" locked="0" /><polyline points="4060.63 3363.028 4228.346 3363.028" stroke-width="1.181"  stroke-linecap="round" fill="none" layerid="1" net="" id="gge27" locked="0" /><polyline points="4060.63 3365.39 4228.346 3365.39" stroke-width="1.181"  stroke-linecap="round" fill="none" layerid="1" net="" id="gge30" locked="0" /><polyline points="4060.63 3367.752 4228.346 3367.752" stroke-width="1.181"  stroke-linecap="round" fill="none" layerid="1" net="" id="gge33" locked="0" /><polyline points="4059.449 3279.957 4059.449 3357.123" stroke-width="1.181"  stroke-linecap="round" fill="none" layerid="1" net="" id="gge36" locked="0" /><polyline points="4057.087 3279.957 4057.087 3357.123" stroke-width="1.181"  stroke-linecap="round" fill="none" layerid="1" net="" id="gge39" locked="0" /><polyline points="4054.724 3279.957 4054.724 3357.123" stroke-width="1.181"  stroke-linecap="round" fill="none" layerid="1" net="" id="gge42" locked="0" /><polyline points="4052.362 3279.957 4052.362 3357.123" stroke-width="1.181"  stroke-linecap="round" fill="none" layerid="1" net="" id="gge45" locked="0" /><polyline points="4050 3279.957 4050 3357.123" stroke-width="1.181"  stroke-linecap="round" fill="none" layerid="1" net="" id="gge48" locked="0" /><polyline points="4229.527 3279.957 4229.527 3357.123" stroke-width="1.181"  stroke-linecap="round" fill="none" layerid="1" net="" id="gge51" locked="0" /><polyline points="4231.889 3279.957 4231.889 3357.123" stroke-width="1.181"  stroke-linecap="round" fill="none" layerid="1" net="" id="gge54" locked="0" /><polyline points="4234.252 3279.957 4234.252 3357.123" stroke-width="1.181"  stroke-linecap="round" fill="none" layerid="1" net="" id="gge57" locked="0" /><polyline points="4236.614 3279.957 4236.614 3357.123" stroke-width="1.181"  stroke-linecap="round" fill="none" layerid="1" net="" id="gge60" locked="0" /><polyline points="4238.976 3279.957 4238.976 3357.123" stroke-width="1.181"  stroke-linecap="round" fill="none" layerid="1" net="" id="gge63" locked="0" /><polyline points="4060.63 3278.776 4144.488 3278.776 4146.85 3276.414 4228.346 3276.414" stroke-width="1.181"  stroke-linecap="round" fill="none" layerid="1" net="" id="gge126" locked="0" /><polyline points="4060.63 3274.052 4142.913 3274.052 4145.275 3271.69 4228.346 3271.69" stroke-width="1.181"  stroke-linecap="round" fill="none" layerid="1" net="" id="gge129" locked="0" /><polyline points="4060.63 3276.414 4143.701 3276.414 4146.063 3274.052 4228.346 3274.052" stroke-width="1.181"  stroke-linecap="round" fill="none" layerid="1" net="" id="gge132" locked="0" /><polyline points="4060.63 3271.69 4142.126 3271.69 4144.488 3269.327 4228.346 3269.327" stroke-width="1.181"  stroke-linecap="round" fill="none" layerid="1" net="" id="gge135" locked="0" /><polyline points="4228.346 3278.776 4147.638 3278.776 4146.988 3279.426 4146.988 3281.04" stroke-width="1.181"  stroke-linecap="round" fill="none" layerid="1" net="" id="gge138" locked="0" /><polyline points="4141.988 3265.54 4141.988 3266.04 4141.988 3268.678 4141.338 3269.327 4060.63 3269.327" stroke-width="1.181"  stroke-linecap="round" fill="none" layerid="1" net="" id="gge141" locked="0" /><g c_partid="part_pad" c_etype="pinpart" c_origin="4141.988,3266.04" layerid="1" number="P$1" net="U1_8" plated ="Y"  id="gge144" locked="0" c_rotation="90" c_width="2.953" c_height="1.181" title="U1_8" c_shape="RECT" pasteexpansion="0" solderexpansion="0.2"><polygon  c_etype="pad_shell" points="4141.3975 3267.5165 4141.3975 3264.5635 4142.5785 3264.5635 4142.5785 3267.5165" layerid="1" stroke-width="0" /><circle c_etype="pad_hole" cx="4141.988" cy="3266.04" r="0" layerid="1" stroke-width="0"/></g><g c_partid="part_pad" c_etype="pinpart" c_origin="4088.2894,3397.54" layerid="1" number="2" net="U1_7" plated ="Y"  id="gge240" locked="0" c_rotation="0" c_width="3.1496" c_height="3.5433" title="U1_7" c_shape="RECT" pasteexpansion="0.0000" solderexpansion="0.2000"><polygon  c_etype="pad_shell" points="4086.7145 3395.7683 4089.8641 3395.7683 4089.8641 3399.3117 4086.7145 3399.3117" layerid="1" stroke-width="0" /><circle c_etype="pad_hole" cx="4088.2889" cy="3397.54" r="0" layerid="1" stroke-width="0"/></g><g c_partid="part_pad" c_etype="pinpart" c_origin="4082.7774,3397.54" layerid="1" number="1" net="U1_2" plated ="Y"  id="gge255" locked="0" c_rotation="0" c_width="3.1496" c_height="3.5433" title="U1_2" c_shape="RECT" pasteexpansion="0.0000" solderexpansion="0.2000"><polygon  c_etype="pad_shell" points="4081.2027 3395.7683 4084.3523 3395.7683 4084.3523 3399.3117 4081.2027 3399.3117" layerid="1" stroke-width="0" /><circle c_etype="pad_hole" cx="4082.7779" cy="3397.54" r="0" layerid="1" stroke-width="0"/></g><g c_partid="part_pad" c_etype="pinpart" c_origin="4054.62,3398.535" layerid="1" number="2" net="U1_2" plated ="Y"  id="gge327" locked="0" c_rotation="180" c_width="3.937" c_height="5.51" title="U1_2" c_shape="RECT" pasteexpansion="0" solderexpansion="0.2"><polygon  c_etype="pad_shell" points="4052.6515 3401.29 4056.5885 3401.29 4056.5885 3395.78 4052.6515 3395.78" layerid="1" stroke-width="0" /><circle c_etype="pad_hole" cx="4054.62" cy="3398.535" r="0" layerid="1" stroke-width="0"/></g><g c_partid="part_pad" c_etype="pinpart" c_origin="4062.89,3398.535" layerid="1" number="1" net="LED1_1" plated ="Y"  id="gge342" locked="0" c_rotation="180" c_width="3.937" c_height="5.51" title="LED1_1" c_shape="RECT" pasteexpansion="0" solderexpansion="0.2"><polygon  c_etype="pad_shell" points="4064.8585 3401.29 4060.9215 3401.29 4060.9215 3395.78 4064.8585 3395.78" layerid="1" stroke-width="0" /><circle c_etype="pad_hole" cx="4062.89" cy="3398.535" r="0" layerid="1" stroke-width="0"/></g><g c_partid="part_pad" c_etype="pinpart" c_origin="4108.4191,3397.54" layerid="1" number="2" net="U1_7" plated ="Y"  id="gge396" locked="0" c_rotation="0" c_width="3.1751" c_height="3.4016" title="U1_7" c_shape="RECT" pasteexpansion="-393.7008" solderexpansion="0.2000"><polygon  c_etype="pad_shell" points="4106.8311 3399.2408 4106.8311 3395.8392 4110.0062 3395.8392 4110.0062 3399.2408" layerid="1" stroke-width="0" /><circle c_etype="pad_hole" cx="4108.4186" cy="3397.54" r="0" layerid="1" stroke-width="0"/></g><g c_partid="part_pad" c_etype="pinpart" c_origin="4102.4871,3397.54" layerid="1" number="1" net="LED1_1" plated ="Y"  id="gge408" locked="0" c_rotation="0" c_width="3.1751" c_height="3.4016" title="LED1_1" c_shape="RECT" pasteexpansion="-393.7008" solderexpansion="0.2000"><polygon  c_etype="pad_shell" points="4104.0751 3399.2408 4104.0751 3395.8392 4100.9 3395.8392 4100.9 3399.2408" layerid="1" stroke-width="0" /><circle c_etype="pad_hole" cx="4102.4876" cy="3397.54" r="0" layerid="1" stroke-width="0"/></g><g c_partid="part_pad" c_etype="pinpart" c_origin="4121.969,3401.805" layerid="1" number="1" net="U1_1" plated ="Y"  id="gge501" locked="0" c_rotation="90" c_width="1.9685" c_height="1.1024" title="U1_1" c_shape="RECT" pasteexpansion="0" solderexpansion="0.2"><polygon  c_etype="pad_shell" points="4121.4178 3402.7893 4121.4178 3400.8208 4122.5202 3400.8208 4122.5202 3402.7893" layerid="1" stroke-width="0" /><circle c_etype="pad_hole" cx="4121.9685" cy="3401.8048" r="0" layerid="1" stroke-width="0"/></g><g c_partid="part_pad" c_etype="pinpart" c_origin="4123.937,3401.805" layerid="1" number="2" net="U1_2" plated ="Y"  id="gge516" locked="0" c_rotation="90" c_width="1.9685" c_height="1.1024" title="U1_2" c_shape="RECT" pasteexpansion="0" solderexpansion="0.2"><polygon  c_etype="pad_shell" points="4123.3858 3402.7893 4123.3858 3400.8208 4124.4882 3400.8208 4124.4882 3402.7893" layerid="1" stroke-width="0" /><circle c_etype="pad_hole" cx="4123.9365" cy="3401.8048" r="0" layerid="1" stroke-width="0"/></g><g c_partid="part_pad" c_etype="pinpart" c_origin="4125.905,3401.805" layerid="1" number="3" net="U1_3" plated ="Y"  id="gge531" locked="0" c_rotation="90" c_width="1.9685" c_height="1.1024" title="U1_3" c_shape="RECT" pasteexpansion="0" solderexpansion="0.2"><polygon  c_etype="pad_shell" points="4125.3538 3402.7893 4125.3538 3400.8208 4126.4562 3400.8208 4126.4562 3402.7893" layerid="1" stroke-width="0" /><circle c_etype="pad_hole" cx="4125.9055" cy="3401.8048" r="0" layerid="1" stroke-width="0"/></g><g c_partid="part_pad" c_etype="pinpart" c_origin="4126.299,3399.246" layerid="1" number="4" net="U1_4" plated ="Y"  id="gge546" locked="0" c_rotation="180" c_width="1.7717" c_height="1.1811" title="U1_4" c_shape="RECT" pasteexpansion="0" solderexpansion="0.2"><polygon  c_etype="pad_shell" points="4127.1848 3399.8366 4125.4132 3399.8366 4125.4132 3398.6555 4127.1848 3398.6555" layerid="1" stroke-width="0" /><circle c_etype="pad_hole" cx="4126.2993" cy="3399.2458" r="0" layerid="1" stroke-width="0"/></g><g c_partid="part_pad" c_etype="pinpart" c_origin="4125.906,3396.687" layerid="1" number="5" net="U1_5" plated ="Y"  id="gge561" locked="0" c_rotation="90" c_width="1.9685" c_height="1.1024" title="U1_5" c_shape="RECT" pasteexpansion="0" solderexpansion="0.2"><polygon  c_etype="pad_shell" points="4125.3548 3397.6713 4125.3548 3395.7028 4126.4572 3395.7028 4126.4572 3397.6713" layerid="1" stroke-width="0" /><circle c_etype="pad_hole" cx="4125.9055" cy="3396.6868" r="0" layerid="1" stroke-width="0"/></g><g c_partid="part_pad" c_etype="pinpart" c_origin="4123.937,3396.687" layerid="1" number="6" net="U1_7" plated ="Y"  id="gge576" locked="0" c_rotation="90" c_width="1.9685" c_height="1.1024" title="U1_7" c_shape="RECT" pasteexpansion="0" solderexpansion="0.2"><polygon  c_etype="pad_shell" points="4123.3858 3397.6713 4123.3858 3395.7028 4124.4882 3395.7028 4124.4882 3397.6713" layerid="1" stroke-width="0" /><circle c_etype="pad_hole" cx="4123.9375" cy="3396.6868" r="0" layerid="1" stroke-width="0"/></g><g c_partid="part_pad" c_etype="pinpart" c_origin="4121.969,3396.687" layerid="1" number="7" net="U1_7" plated ="Y"  id="gge591" locked="0" c_rotation="90" c_width="1.9685" c_height="1.1024" title="U1_7" c_shape="RECT" pasteexpansion="0" solderexpansion="0.2"><polygon  c_etype="pad_shell" points="4121.4178 3397.6713 4121.4178 3395.7028 4122.5202 3395.7028 4122.5202 3397.6713" layerid="1" stroke-width="0" /><circle c_etype="pad_hole" cx="4121.9685" cy="3396.6868" r="0" layerid="1" stroke-width="0"/></g><g c_partid="part_pad" c_etype="pinpart" c_origin="4121.575,3399.246" layerid="1" number="8" net="U1_8" plated ="Y"  id="gge606" locked="0" c_rotation="180" c_width="1.7717" c_height="1.1811" title="U1_8" c_shape="RECT" pasteexpansion="0" solderexpansion="0.2"><polygon  c_etype="pad_shell" points="4122.4608 3399.8366 4120.6892 3399.8366 4120.6892 3398.6555 4122.4608 3398.6555" layerid="1" stroke-width="0" /><circle c_etype="pad_hole" cx="4121.5747" cy="3399.2458" r="0" layerid="1" stroke-width="0"/></g><g c_partid="part_pad" c_etype="pinpart" c_origin="4123.937,3399.246" layerid="1" number="9" net="U1_9" plated ="Y"  id="gge621" locked="0" c_rotation="180" c_width="1.1811" c_height="1.1811" title="U1_9" c_shape="RECT" pasteexpansion="0" solderexpansion="0.2"><polygon  c_etype="pad_shell" points="4124.5271 3399.8364 4123.3459 3399.8364 4123.3459 3398.6553 4124.5271 3398.6553" layerid="1" stroke-width="0" /><circle c_etype="pad_hole" cx="4123.9375" cy="3399.2458" r="0" layerid="1" stroke-width="0"/></g><path d="M 4228.346 3278.776 A 1.181 1.181 0 0 1 4229.527 3279.957" locked="0"  fill="none" stroke-width="1.181" c_helper_type="arc2" net="" layerid="1" id="gge66" /><path d="M 4228.346 3276.414 A 3.543 3.543 0 0 1 4231.889 3279.957" locked="0"  fill="none" stroke-width="1.181" c_helper_type="arc2" net="" layerid="1" id="gge69" /><path d="M 4228.346 3274.052 A 5.905 5.905 0 0 1 4234.252 3279.957" locked="0"  fill="none" stroke-width="1.181" c_helper_type="arc2" net="" layerid="1" id="gge72" /><path d="M 4228.346 3271.69 A 8.268 8.268 0 0 1 4236.614 3279.957" locked="0"  fill="none" stroke-width="1.181" c_helper_type="arc2" net="" layerid="1" id="gge75" /><path d="M 4228.346 3269.327 A 10.63 10.63 0 0 1 4238.976 3279.957" locked="0"  fill="none" stroke-width="1.181" c_helper_type="arc2" net="" layerid="1" id="gge78" /><path d="M 4060.63 3278.776 A 1.181 1.181 0 0 0 4059.449 3279.957" locked="0"  fill="none" stroke-width="1.181" c_helper_type="arc2" net="" layerid="1" id="gge81" /><path d="M 4060.63 3276.414 A 3.543 3.543 0 0 0 4057.087 3279.957" locked="0"  fill="none" stroke-width="1.181" c_helper_type="arc2" net="" layerid="1" id="gge84" /><path d="M 4060.63 3274.052 A 5.905 5.905 0 0 0 4054.724 3279.957" locked="0"  fill="none" stroke-width="1.181" c_helper_type="arc2" net="" layerid="1" id="gge87" /><path d="M 4060.63 3271.69 A 8.268 8.268 0 0 0 4052.362 3279.957" locked="0"  fill="none" stroke-width="1.181" c_helper_type="arc2" net="" layerid="1" id="gge90" /><path d="M 4060.63 3269.327 A 10.63 10.63 0 0 0 4050 3279.957" locked="0"  fill="none" stroke-width="1.181" c_helper_type="arc2" net="" layerid="1" id="gge93" /><path d="M 4060.63 3358.304 A 1.181 1.181 0 0 1 4059.449 3357.123" locked="0"  fill="none" stroke-width="1.181" c_helper_type="arc2" net="" layerid="1" id="gge96" /><path d="M 4060.63 3360.666 A 3.543 3.543 0 0 1 4057.087 3357.123" locked="0"  fill="none" stroke-width="1.181" c_helper_type="arc2" net="" layerid="1" id="gge99" /><path d="M 4060.63 3363.028 A 5.905 5.905 0 0 1 4054.724 3357.123" locked="0"  fill="none" stroke-width="1.181" c_helper_type="arc2" net="" layerid="1" id="gge102" /><path d="M 4060.63 3365.39 A 8.268 8.268 0 0 1 4052.362 3357.123" locked="0"  fill="none" stroke-width="1.181" c_helper_type="arc2" net="" layerid="1" id="gge105" /><path d="M 4060.63 3367.753 A 10.63 10.63 0 0 1 4050 3357.123" locked="0"  fill="none" stroke-width="1.181" c_helper_type="arc2" net="" layerid="1" id="gge108" /><path d="M 4228.346 3358.304 A 1.181 1.181 0 0 0 4229.527 3357.123" locked="0"  fill="none" stroke-width="1.181" c_helper_type="arc2" net="" layerid="1" id="gge111" /><path d="M 4228.346 3360.666 A 3.543 3.543 0 0 0 4231.889 3357.123" locked="0"  fill="none" stroke-width="1.181" c_helper_type="arc2" net="" layerid="1" id="gge114" /><path d="M 4228.346 3363.028 A 5.905 5.905 0 0 0 4234.252 3357.123" locked="0"  fill="none" stroke-width="1.181" c_helper_type="arc2" net="" layerid="1" id="gge117" /><path d="M 4228.346 3365.39 A 8.268 8.268 0 0 0 4236.614 3357.123" locked="0"  fill="none" stroke-width="1.181" c_helper_type="arc2" net="" layerid="1" id="gge120" /><path d="M 4228.346 3367.753 A 10.63 10.63 0 0 0 4238.976 3357.123" locked="0"  fill="none" stroke-width="1.181" c_helper_type="arc2" net="" layerid="1" id="gge123" /><g c_partid="part_pad" c_etype="pinpart" c_origin="4146.988,3281.04" layerid="11" number="P$2" net="U1_2" plated ="Y"  id="gge159" locked="0" c_rotation="0" c_width="3.181" c_height="3.181" title="U1_2" c_shape="ELLIPSE" pasteexpansion="0" solderexpansion="0.2"><ellipse c_etype="pad_shell" cx="4146.988" cy="3281.04" rx="1.5905" ry="1.5905" layerid="11" stroke-width="0"/><polyline c_etype="pad_hole" points="4146.9885 3281.04 4146.9875 3281.04" layerid="11" stroke-width="1.182"></polyline></g><polyline points="4091.0059 3395.9661 4091.0059 3399.1158" stroke-width="1"  stroke-linecap="round" fill="none" layerid="3" net="" id="gge201" locked="0" /><polyline points="4086.6368 3394.7462 4089.7863 3394.7462" stroke-width="1"  stroke-linecap="round" fill="none" layerid="3" net="" id="gge204" locked="0" /><polyline points="4086.6368 3400.3354 4089.7863 3400.3354" stroke-width="1"  stroke-linecap="round" fill="none" layerid="3" net="" id="gge207" locked="0" /><polyline points="4084.3695 3394.7233 4081.2199 3394.7233" stroke-width="1"  stroke-linecap="round" fill="none" layerid="3" net="" id="gge210" locked="0" /><polyline points="4080.0001 3395.9431 4080.0001 3399.0926" stroke-width="1"  stroke-linecap="round" fill="none" layerid="3" net="" id="gge213" locked="0" /><polyline points="4084.3695 3400.3123 4081.2199 3400.3123" stroke-width="1"  stroke-linecap="round" fill="none" layerid="3" net="" id="gge216" locked="0" /><polyline points="4059.5424 3396.5665 4057.9676 3398.1413 4057.5739 3398.535 4057.9676 3398.9297 4059.5424 3400.5045" stroke-width="1"  stroke-linecap="round" fill="none" layerid="3" net="" id="gge300" locked="0" /><polyline points="4059.5424 3396.5665 4059.5424 3400.5045" stroke-width="1"  stroke-linecap="round" fill="none" layerid="3" net="" id="gge303" locked="0" /><polyline points="4060.5 3402.54 4066.6 3402.54 4066.6 3394.54 4060.5 3394.54" stroke-width="1"  stroke-linecap="round" fill="none" layerid="3" net="" id="gge306" locked="0" /><polyline points="4057.4 3402.64 4051.6 3402.64 4050 3401.04 4050 3396.04 4051.5 3394.54 4057.5 3394.54" stroke-width="1"  stroke-linecap="round" fill="none" layerid="3" net="" id="gge309" locked="0" /><polyline points="4107.1311 3400.1408 4110.9062 3400.1408 4110.9062 3394.9392 4107.1311 3394.9392" stroke-width="0.6"  stroke-linecap="round" fill="none" layerid="3" net="" id="gge381" locked="0" /><polyline points="4103.7751 3400.1408 4100 3400.1408 4100 3394.9392 4103.7751 3394.9392" stroke-width="0.6"  stroke-linecap="round" fill="none" layerid="3" net="" id="gge384" locked="0" /><polyline points="4127.3154 3395.3087 4127.874 3395.3087" stroke-width="1"  stroke-linecap="round" fill="none" layerid="3" net="" id="gge474" locked="0" /><polyline points="4119.9999 3397.9659 4119.9999 3395.3087 4120.5588 3395.3087" stroke-width="1"  stroke-linecap="round" fill="none" layerid="3" net="" id="gge477" locked="0" /><polyline points="4120.5588 3403.1827 4119.9999 3403.1827 4119.9999 3400.525" stroke-width="1"  stroke-linecap="round" fill="none" layerid="3" net="" id="gge480" locked="0" /><polyline points="4127.874 3403.1827 4127.3154 3403.1827" stroke-width="1"  stroke-linecap="round" fill="none" layerid="3" net="" id="gge483" locked="0" /><polyline points="4127.874 3400.525 4127.874 3403.1827" stroke-width="1"  stroke-linecap="round" fill="none" layerid="3" net="" id="gge486" locked="0" /><polyline points="4127.874 3395.3087 4127.874 3397.9659" stroke-width="1"  stroke-linecap="round" fill="none" layerid="3" net="" id="gge489" locked="0" /><g c_partid="part_pcbtext" c_etype="" c_origin="4144.488,3256.54" c_rotation="0" c_mirror="" id="gge9" locked="0" layerid="3" c_shapetype="group" display="none"><path c_fontsize="4.5" c_fontfamily="" c_text="25X48MM_NFC_ANTENNA" d="M 4144.688 3253.02 L 4144.688 3252.82 L 4144.898 3252.41 L 4145.098 3252.2 L 4145.508 3252 L 4146.328 3252 L 4146.738 3252.2 L 4146.938 3252.41 L 4147.148 3252.82 L 4147.148 3253.23 L 4146.938 3253.64 L 4146.538 3254.25 L 4144.488 3256.29 L 4147.348 3256.29 M 4151.158 3252 L 4149.108 3252 L 4148.908 3253.84 L 4149.108 3253.64 L 4149.728 3253.43 L 4150.338 3253.43 L 4150.948 3253.64 L 4151.358 3254.04 L 4151.568 3254.66 L 4151.568 3255.07 L 4151.358 3255.68 L 4150.948 3256.09 L 4150.338 3256.29 L 4149.728 3256.29 L 4149.108 3256.09 L 4148.908 3255.89 L 4148.698 3255.48 M 4152.918 3252 L 4155.778 3256.29 M 4155.778 3252 L 4152.918 3256.29 M 4159.178 3252 L 4157.128 3254.86 L 4160.198 3254.86 M 4159.178 3252 L 4159.178 3256.29 M 4162.568 3252 L 4161.958 3252.2 L 4161.748 3252.61 L 4161.748 3253.02 L 4161.958 3253.43 L 4162.368 3253.64 L 4163.188 3253.84 L 4163.798 3254.04 L 4164.208 3254.45 L 4164.408 3254.86 L 4164.408 3255.48 L 4164.208 3255.89 L 4163.998 3256.09 L 4163.388 3256.29 L 4162.568 3256.29 L 4161.958 3256.09 L 4161.748 3255.89 L 4161.548 3255.48 L 4161.548 3254.86 L 4161.748 3254.45 L 4162.158 3254.04 L 4162.778 3253.84 L 4163.588 3253.64 L 4163.998 3253.43 L 4164.208 3253.02 L 4164.208 3252.61 L 4163.998 3252.2 L 4163.388 3252 L 4162.568 3252 M 4165.758 3252 L 4165.758 3256.29 M 4165.758 3252 L 4167.398 3256.29 M 4169.038 3252 L 4167.398 3256.29 M 4169.038 3252 L 4169.038 3256.29 M 4170.388 3252 L 4170.388 3256.29 M 4170.388 3252 L 4172.018 3256.29 M 4173.658 3252 L 4172.018 3256.29 M 4173.658 3252 L 4173.658 3256.29 M 4175.008 3257.73 L 4178.688 3257.73 M 4180.038 3252 L 4180.038 3256.29 M 4180.038 3252 L 4182.898 3256.29 M 4182.898 3252 L 4182.898 3256.29 M 4184.248 3252 L 4184.248 3256.29 M 4184.248 3252 L 4186.908 3252 M 4184.248 3254.04 L 4185.888 3254.04 M 4191.328 3253.02 L 4191.128 3252.61 L 4190.718 3252.2 L 4190.308 3252 L 4189.488 3252 L 4189.078 3252.2 L 4188.668 3252.61 L 4188.468 3253.02 L 4188.258 3253.64 L 4188.258 3254.66 L 4188.468 3255.27 L 4188.668 3255.68 L 4189.078 3256.09 L 4189.488 3256.29 L 4190.308 3256.29 L 4190.718 3256.09 L 4191.128 3255.68 L 4191.328 3255.27 M 4192.678 3257.73 L 4196.358 3257.73 M 4199.348 3252 L 4197.708 3256.29 M 4199.348 3252 L 4200.988 3256.29 M 4198.328 3254.86 L 4200.368 3254.86 M 4202.338 3252 L 4202.338 3256.29 M 4202.338 3252 L 4205.198 3256.29 M 4205.198 3252 L 4205.198 3256.29 M 4207.978 3252 L 4207.978 3256.29 M 4206.548 3252 L 4209.408 3252 M 4210.758 3252 L 4210.758 3256.29 M 4210.758 3252 L 4213.418 3252 M 4210.758 3254.04 L 4212.398 3254.04 M 4210.758 3256.29 L 4213.418 3256.29 M 4214.768 3252 L 4214.768 3256.29 M 4214.768 3252 L 4217.638 3256.29 M 4217.638 3252 L 4217.638 3256.29 M 4218.988 3252 L 4218.988 3256.29 M 4218.988 3252 L 4221.848 3256.29 M 4221.848 3252 L 4221.848 3256.29 M 4224.838 3252 L 4223.198 3256.29 M 4224.838 3252 L 4226.468 3256.29 M 4223.808 3254.86 L 4225.858 3254.86" fill="none"  stroke-width="0.6" c_note="note_name" /></g><g c_partid="part_pcbtext" c_etype="" c_origin="4144.488,3263.54" c_rotation="0" c_mirror="" id="gge15" locked="0" layerid="3" c_shapetype="group" ><path c_fontsize="4.5" c_fontfamily="" c_text="1" d="M 4144.488 3259.82 L 4144.898 3259.61 L 4145.508 3259 L 4145.508 3263.29" fill="none"  stroke-width="0.6" c_note="note_pre" /></g><g c_partid="part_pcbtext" c_etype="" c_origin="4084.5334,3386.54" c_rotation="0" c_mirror="" id="gge180" locked="0" layerid="3" c_shapetype="group" display="none"><path c_fontsize="4.5" c_fontfamily="" c_text="220nF" d="M 4084.7334 3383.02 L 4084.7334 3382.82 L 4084.9434 3382.41 L 4085.1434 3382.2 L 4085.5534 3382 L 4086.3734 3382 L 4086.7834 3382.2 L 4086.9834 3382.41 L 4087.1934 3382.82 L 4087.1934 3383.23 L 4086.9834 3383.64 L 4086.5834 3384.25 L 4084.5334 3386.29 L 4087.3934 3386.29 M 4088.9534 3383.02 L 4088.9534 3382.82 L 4089.1534 3382.41 L 4089.3634 3382.2 L 4089.7734 3382 L 4090.5834 3382 L 4090.9934 3382.2 L 4091.2034 3382.41 L 4091.4034 3382.82 L 4091.4034 3383.23 L 4091.2034 3383.64 L 4090.7934 3384.25 L 4088.7434 3386.29 L 4091.6134 3386.29 M 4094.1834 3382 L 4093.5734 3382.2 L 4093.1634 3382.82 L 4092.9634 3383.84 L 4092.9634 3384.45 L 4093.1634 3385.48 L 4093.5734 3386.09 L 4094.1834 3386.29 L 4094.5934 3386.29 L 4095.2134 3386.09 L 4095.6234 3385.48 L 4095.8234 3384.45 L 4095.8234 3383.84 L 4095.6234 3382.82 L 4095.2134 3382.2 L 4094.5934 3382 L 4094.1834 3382 M 4097.1734 3383.43 L 4097.1734 3386.29 M 4097.1734 3384.25 L 4097.7834 3383.64 L 4098.1934 3383.43 L 4098.8134 3383.43 L 4099.2234 3383.64 L 4099.4234 3384.25 L 4099.4234 3386.29 M 4100.7734 3382 L 4100.7734 3386.29 M 4100.7734 3382 L 4103.4334 3382 M 4100.7734 3384.04 L 4102.4134 3384.04" fill="none"  stroke-width="0.6" c_note="note_name" /></g><g c_partid="part_pcbtext" c_etype="" c_origin="4084.5334,3393.54" c_rotation="0" c_mirror="" id="gge186" locked="0" layerid="3" c_shapetype="group" ><path c_fontsize="4.5" c_fontfamily="" c_text="C1" d="M 4087.6034 3390.02 L 4087.3934 3389.61 L 4086.9834 3389.2 L 4086.5834 3389 L 4085.7634 3389 L 4085.3534 3389.2 L 4084.9434 3389.61 L 4084.7334 3390.02 L 4084.5334 3390.64 L 4084.5334 3391.66 L 4084.7334 3392.27 L 4084.9434 3392.68 L 4085.3534 3393.09 L 4085.7634 3393.29 L 4086.5834 3393.29 L 4086.9834 3393.09 L 4087.3934 3392.68 L 4087.6034 3392.27 M 4088.9534 3389.82 L 4089.3634 3389.61 L 4089.9734 3389 L 4089.9734 3393.29" fill="none"  stroke-width="0.6" c_note="note_pre" /></g><g c_partid="part_pcbtext" c_etype="" c_origin="4057.82,3386.54" c_rotation="0" c_mirror="" id="gge276" locked="0" layerid="3" c_shapetype="group" display="none"><path c_fontsize="4.5" c_fontfamily="" c_text="17-21SUYC/TR8" d="M 4057.82 3382.82 L 4058.23 3382.61 L 4058.84 3382 L 4058.84 3386.29 M 4063.06 3382 L 4061.01 3386.29 M 4060.19 3382 L 4063.06 3382 M 4064.41 3384.45 L 4068.09 3384.45 M 4069.64 3383.02 L 4069.64 3382.82 L 4069.85 3382.41 L 4070.05 3382.2 L 4070.46 3382 L 4071.28 3382 L 4071.69 3382.2 L 4071.89 3382.41 L 4072.1 3382.82 L 4072.1 3383.23 L 4071.89 3383.64 L 4071.48 3384.25 L 4069.44 3386.29 L 4072.3 3386.29 M 4073.65 3382.82 L 4074.06 3382.61 L 4074.67 3382 L 4074.67 3386.29 M 4078.89 3382.61 L 4078.48 3382.2 L 4077.87 3382 L 4077.05 3382 L 4076.43 3382.2 L 4076.02 3382.61 L 4076.02 3383.02 L 4076.23 3383.43 L 4076.43 3383.64 L 4076.84 3383.84 L 4078.07 3384.25 L 4078.48 3384.45 L 4078.68 3384.66 L 4078.89 3385.07 L 4078.89 3385.68 L 4078.48 3386.09 L 4077.87 3386.29 L 4077.05 3386.29 L 4076.43 3386.09 L 4076.02 3385.68 M 4080.24 3382 L 4080.24 3385.07 L 4080.44 3385.68 L 4080.85 3386.09 L 4081.47 3386.29 L 4081.87 3386.29 L 4082.49 3386.09 L 4082.9 3385.68 L 4083.1 3385.07 L 4083.1 3382 M 4084.45 3382 L 4086.09 3384.04 L 4086.09 3386.29 M 4087.72 3382 L 4086.09 3384.04 M 4092.14 3383.02 L 4091.94 3382.61 L 4091.53 3382.2 L 4091.12 3382 L 4090.3 3382 L 4089.89 3382.2 L 4089.48 3382.61 L 4089.28 3383.02 L 4089.07 3383.64 L 4089.07 3384.66 L 4089.28 3385.27 L 4089.48 3385.68 L 4089.89 3386.09 L 4090.3 3386.29 L 4091.12 3386.29 L 4091.53 3386.09 L 4091.94 3385.68 L 4092.14 3385.27 M 4097.17 3381.18 L 4093.49 3387.73 M 4099.96 3382 L 4099.96 3386.29 M 4098.52 3382 L 4101.39 3382 M 4102.74 3382 L 4102.74 3386.29 M 4102.74 3382 L 4104.58 3382 L 4105.19 3382.2 L 4105.4 3382.41 L 4105.6 3382.82 L 4105.6 3383.23 L 4105.4 3383.64 L 4105.19 3383.84 L 4104.58 3384.04 L 4102.74 3384.04 M 4104.17 3384.04 L 4105.6 3386.29 M 4107.97 3382 L 4107.36 3382.2 L 4107.16 3382.61 L 4107.16 3383.02 L 4107.36 3383.43 L 4107.77 3383.64 L 4108.59 3383.84 L 4109.2 3384.04 L 4109.61 3384.45 L 4109.82 3384.86 L 4109.82 3385.48 L 4109.61 3385.89 L 4109.41 3386.09 L 4108.79 3386.29 L 4107.97 3386.29 L 4107.36 3386.09 L 4107.16 3385.89 L 4106.95 3385.48 L 4106.95 3384.86 L 4107.16 3384.45 L 4107.57 3384.04 L 4108.18 3383.84 L 4109 3383.64 L 4109.41 3383.43 L 4109.61 3383.02 L 4109.61 3382.61 L 4109.41 3382.2 L 4108.79 3382 L 4107.97 3382" fill="none"  stroke-width="0.6" c_note="note_name" /></g><g c_partid="part_pcbtext" c_etype="" c_origin="4057.82,3393.54" c_rotation="0" c_mirror="" id="gge282" locked="0" layerid="3" c_shapetype="group" ><path c_fontsize="4.5" c_fontfamily="" c_text="LED1" d="M 4057.82 3389 L 4057.82 3393.29 M 4057.82 3393.29 L 4060.27 3393.29 M 4061.62 3389 L 4061.62 3393.29 M 4061.62 3389 L 4064.28 3389 M 4061.62 3391.04 L 4063.26 3391.04 M 4061.62 3393.29 L 4064.28 3393.29 M 4065.63 3389 L 4065.63 3393.29 M 4065.63 3389 L 4067.07 3389 L 4067.68 3389.2 L 4068.09 3389.61 L 4068.29 3390.02 L 4068.5 3390.64 L 4068.5 3391.66 L 4068.29 3392.27 L 4068.09 3392.68 L 4067.68 3393.09 L 4067.07 3393.29 L 4065.63 3393.29 M 4069.85 3389.82 L 4070.26 3389.61 L 4070.87 3389 L 4070.87 3393.29" fill="none"  stroke-width="0.6" c_note="note_pre" /></g><g c_partid="part_pcbtext" c_etype="" c_origin="4105,3381" c_rotation="0" c_mirror="" id="gge663" locked="0" layerid="3" c_shapetype="group" display="none"><path c_fontsize="4.5" c_fontfamily="NotoSerifCJKsc-Medium" c_text="47Ω" d="M 4105.34 3379.83 L 4106.31 3378.44 L 4106.31 3379.83 Z  M 4107.12 3379.83 L 4106.66 3379.83 L 4106.66 3378.02 L 4106.42 3378.02 L 4105.12 3379.88 L 4105.12 3380.09 L 4106.31 3380.09 L 4106.31 3381 L 4106.66 3381 L 4106.66 3380.09 L 4107.12 3380.09 Z  M 4107.42 3378.07 L 4107.42 3378.41 L 4108.95 3378.41 L 4107.78 3380.96 L 4107.82 3381 L 4108.16 3381 L 4109.2 3378.28 L 4109.2 3378.07 Z  M 4112.19 3380.26 L 4112.09 3380.69 L 4111.47 3380.69 L 4111.47 3380.69 C 4111.92 3380.37 4112.28 3379.9 4112.28 3379.33 C 4112.28 3378.47 4111.67 3378 4111 3378 C 4110.31 3378 4109.71 3378.47 4109.71 3379.33 C 4109.71 3379.9 4110.07 3380.37 4110.52 3380.69 L 4110.52 3380.69 L 4109.9 3380.69 L 4109.8 3380.26 L 4109.57 3380.26 L 4109.61 3381 L 4110.78 3381 L 4110.78 3380.73 C 4110.38 3380.4 4110.12 3379.88 4110.12 3379.33 C 4110.12 3378.68 4110.44 3378.19 4111 3378.19 C 4111.54 3378.19 4111.87 3378.68 4111.87 3379.33 C 4111.87 3379.88 4111.61 3380.4 4111.2 3380.73 L 4111.2 3381 L 4112.38 3381 L 4112.42 3380.26 Z "  stroke="none" stroke-width="0.6" c_note="note_name" /></g><g c_partid="part_pcbtext" c_etype="" c_origin="4105.4531,3393.54" c_rotation="0" c_mirror="" id="gge360" locked="0" layerid="3" c_shapetype="group" ><path c_fontsize="4.5" c_fontfamily="" c_text="R1" d="M 4105.4531 3389 L 4105.4531 3393.29 M 4105.4531 3389 L 4107.2931 3389 L 4107.9031 3389.2 L 4108.1131 3389.41 L 4108.3131 3389.82 L 4108.3131 3390.23 L 4108.1131 3390.64 L 4107.9031 3390.84 L 4107.2931 3391.04 L 4105.4531 3391.04 M 4106.8831 3391.04 L 4108.3131 3393.29 M 4109.6631 3389.82 L 4110.0731 3389.61 L 4110.6931 3389 L 4110.6931 3393.29" fill="none"  stroke-width="0.6" c_note="note_pre" /></g><g c_partid="part_pcbtext" c_etype="" c_origin="4123.281,3386.54" c_rotation="0" c_mirror="" id="gge426" locked="0" layerid="3" c_shapetype="group" display="none"><path c_fontsize="4.5" c_fontfamily="" c_text="NT3H2111W0FHKH" d="M 4123.281 3382 L 4123.281 3386.29 M 4123.281 3382 L 4126.141 3386.29 M 4126.141 3382 L 4126.141 3386.29 M 4128.931 3382 L 4128.931 3386.29 M 4127.491 3382 L 4130.361 3382 M 4132.121 3382 L 4134.371 3382 L 4133.141 3383.64 L 4133.751 3383.64 L 4134.161 3383.84 L 4134.371 3384.04 L 4134.571 3384.66 L 4134.571 3385.07 L 4134.371 3385.68 L 4133.961 3386.09 L 4133.341 3386.29 L 4132.731 3386.29 L 4132.121 3386.09 L 4131.911 3385.89 L 4131.711 3385.48 M 4135.921 3382 L 4135.921 3386.29 M 4138.781 3382 L 4138.781 3386.29 M 4135.921 3384.04 L 4138.781 3384.04 M 4140.341 3383.02 L 4140.341 3382.82 L 4140.541 3382.41 L 4140.751 3382.2 L 4141.161 3382 L 4141.981 3382 L 4142.381 3382.2 L 4142.591 3382.41 L 4142.791 3382.82 L 4142.791 3383.23 L 4142.591 3383.64 L 4142.181 3384.25 L 4140.131 3386.29 L 4143.001 3386.29 M 4144.351 3382.82 L 4144.761 3382.61 L 4145.371 3382 L 4145.371 3386.29 M 4146.721 3382.82 L 4147.131 3382.61 L 4147.741 3382 L 4147.741 3386.29 M 4149.091 3382.82 L 4149.501 3382.61 L 4150.121 3382 L 4150.121 3386.29 M 4151.471 3382 L 4152.491 3386.29 M 4153.511 3382 L 4152.491 3386.29 M 4153.511 3382 L 4154.531 3386.29 M 4155.561 3382 L 4154.531 3386.29 M 4158.131 3382 L 4157.521 3382.2 L 4157.111 3382.82 L 4156.911 3383.84 L 4156.911 3384.45 L 4157.111 3385.48 L 4157.521 3386.09 L 4158.131 3386.29 L 4158.541 3386.29 L 4159.161 3386.09 L 4159.571 3385.48 L 4159.771 3384.45 L 4159.771 3383.84 L 4159.571 3382.82 L 4159.161 3382.2 L 4158.541 3382 L 4158.131 3382 M 4161.121 3382 L 4161.121 3386.29 M 4161.121 3382 L 4163.781 3382 M 4161.121 3384.04 L 4162.761 3384.04 M 4165.131 3382 L 4165.131 3386.29 M 4167.991 3382 L 4167.991 3386.29 M 4165.131 3384.04 L 4167.991 3384.04 M 4169.341 3382 L 4169.341 3386.29 M 4172.211 3382 L 4169.341 3384.86 M 4170.371 3383.84 L 4172.211 3386.29 M 4173.561 3382 L 4173.561 3386.29 M 4176.421 3382 L 4176.421 3386.29 M 4173.561 3384.04 L 4176.421 3384.04" fill="none"  stroke-width="0.6" c_note="note_name" /></g><g c_partid="part_pcbtext" c_etype="" c_origin="4123.281,3393.54" c_rotation="0" c_mirror="" id="gge432" locked="0" layerid="3" c_shapetype="group" ><path c_fontsize="4.5" c_fontfamily="" c_text="U1" d="M 4123.281 3389 L 4123.281 3392.07 L 4123.481 3392.68 L 4123.891 3393.09 L 4124.511 3393.29 L 4124.921 3393.29 L 4125.531 3393.09 L 4125.941 3392.68 L 4126.141 3392.07 L 4126.141 3389 M 4127.491 3389.82 L 4127.901 3389.61 L 4128.521 3389 L 4128.521 3393.29" fill="none"  stroke-width="0.6" c_note="note_pre" /></g><path d="M 4079.9999 3395.9431 A 1.2198 1.2198 0 0 1 4081.2197 3394.7233" locked="0"  fill="none" stroke-width="1" c_helper_type="arc2" net="" layerid="3" id="gge219" /><path d="M 4081.2197 3400.3125 A 1.2198 1.2198 0 0 1 4079.9999 3399.0926" locked="0"  fill="none" stroke-width="1" c_helper_type="arc2" net="" layerid="3" id="gge222" /><path d="M 4089.7861 3394.7462 A 1.2198 1.2198 0 0 1 4091.0059 3395.9661" locked="0"  fill="none" stroke-width="1" c_helper_type="arc2" net="" layerid="3" id="gge225" /><path d="M 4091.0059 3399.1156 A 1.2198 1.2198 0 0 1 4089.7861 3400.3354" locked="0"  fill="none" stroke-width="1" c_helper_type="arc2" net="" layerid="3" id="gge228" /><circle cx="4121.938" cy="3404.246" r="0.25" stroke-width="1" fill="none" layerid="3" id="gge492" locked="0"  /><polyline points="4047.559 3049.154 4362.519 3049.154 4362.519 3249.941 4047.559 3249.941 4047.559 3049.154" stroke-width="1"  stroke-linecap="round" fill="none" layerid="10" net="" id="gge666" locked="0" /></svg>